<?xml version="1.0" standalone="no"?>
<!DOCTYPE svg PUBLIC "-//W3C//DTD SVG 20010904//EN"
 "http://www.w3.org/TR/2001/REC-SVG-20010904/DTD/svg10.dtd">
<svg version="1.0" xmlns="http://www.w3.org/2000/svg"
 width="455.000000pt" height="447.000000pt" viewBox="0 0 455.000000 447.000000"
 preserveAspectRatio="xMidYMid meet">

<g transform="translate(0.000000,447.000000) scale(0.100000,-0.100000)"
fill="#000000" stroke="none">
<path d="M1343 4312 c-19 -3 -22 -11 -27 -75 -3 -40 -10 -360 -16 -712 -5
-352 -13 -727 -16 -834 l-7 -194 -236 7 c-130 4 -398 13 -596 21 -197 8 -361
12 -364 10 -6 -7 88 -114 173 -195 43 -41 102 -99 130 -129 28 -29 80 -74 116
-99 133 -93 148 -117 184 -286 38 -180 48 -194 227 -319 273 -190 294 -190
364 -6 32 83 63 122 119 152 36 19 56 22 166 21 108 0 135 -4 198 -26 169 -61
232 -126 421 -440 96 -161 165 -262 212 -315 80 -89 108 -144 174 -335 62
-181 70 -189 262 -278 l151 -70 90 0 c81 0 96 -3 147 -30 31 -17 65 -30 75
-30 36 0 35 12 -15 265 -49 253 -27 407 78 539 17 22 27 41 21 43 -8 3 -388
222 -934 538 l-195 113 -3 700 -2 699 285 164 284 164 -87 5 c-84 6 -159 31
-177 60 -13 21 -67 40 -142 51 -102 13 -141 26 -154 51 -7 13 -13 155 -16 394
-5 333 -8 374 -22 375 -64 2 -851 3 -868 1z"/>
</g>
</svg>
